<svg width="48" height="49" viewBox="0 0 48 49" fill="none" xmlns="http://www.w3.org/2000/svg">
<path d="M44.5382 0.806641H3.46179C1.5498 0.806641 0 2.35645 0 4.26843V45.3448C0 47.2568 1.5498 48.8066 3.46179 48.8066H25.6406V30.2441H19.4062V22.9785H25.6406V17.6315C25.6406 11.4308 29.4261 8.05579 34.9574 8.05579C37.6066 8.05579 39.8833 8.25317 40.5469 8.34143V14.8223H36.7328C33.7233 14.8223 33.1406 16.2523 33.1406 18.3511V22.9785H40.3359L39.3984 30.2441H33.1406V48.8066H44.5382C46.4502 48.8066 48 47.2568 48 45.3448V4.26843C48 2.35645 46.4502 0.806641 44.5382 0.806641V0.806641Z" fill="#131313"/>
</svg>
