<svg _ngcontent-uas-c30="" width="16" height="16" viewBox="0 0 16 16" fill="none" xmlns="http://www.w3.org/2000/svg"><path _ngcontent-uas-c30="" d="M3.99967 8.0013C3.99967 8.7377 3.40272 9.33464 2.66634 9.33464C1.92996 9.33464 1.33301 8.7377 1.33301 8.0013C1.33301 7.2649 1.92996 6.66797 2.66634 6.66797C3.40272 6.66797 3.99967 7.2649 3.99967 8.0013Z" fill="black" fill-opacity="0.64"/><path _ngcontent-uas-c30="" d="M9.33268 8.0013C9.33268 8.7377 8.73575 9.33464 7.99935 9.33464C7.26295 9.33464 6.66602 8.7377 6.66602 8.0013C6.66602 7.2649 7.26295 6.66797 7.99935 6.66797C8.73575 6.66797 9.33268 7.2649 9.33268 8.0013Z" fill="black" fill-opacity="0.64"/><path _ngcontent-uas-c30="" d="M14.6667 8.0013C14.6667 8.7377 14.0697 9.33464 13.3333 9.33464C12.5969 9.33464 12 8.7377 12 8.0013C12 7.2649 12.5969 6.66797 13.3333 6.66797C14.0697 6.66797 14.6667 7.2649 14.6667 8.0013Z" fill="black" fill-opacity="0.64"/><path _ngcontent-uas-c30="" d="M3.99967 2.66732C3.99967 3.4037 3.40272 4.00065 2.66634 4.00065C1.92996 4.00065 1.33301 3.4037 1.33301 2.66732C1.33301 1.93094 1.92996 1.33398 2.66634 1.33398C3.40272 1.33398 3.99967 1.93094 3.99967 2.66732Z" fill="black" fill-opacity="0.64"/><path _ngcontent-uas-c30="" d="M9.33268 2.66732C9.33268 3.4037 8.73575 4.00065 7.99935 4.00065C7.26295 4.00065 6.66602 3.4037 6.66602 2.66732C6.66602 1.93094 7.26295 1.33398 7.99935 1.33398C8.73575 1.33398 9.33268 1.93094 9.33268 2.66732Z" fill="black" fill-opacity="0.64"/><path _ngcontent-uas-c30="" d="M14.6667 2.66732C14.6667 3.4037 14.0697 4.00065 13.3333 4.00065C12.5969 4.00065 12 3.4037 12 2.66732C12 1.93094 12.5969 1.33398 13.3333 1.33398C14.0697 1.33398 14.6667 1.93094 14.6667 2.66732Z" fill="black" fill-opacity="0.64"/><path _ngcontent-uas-c30="" d="M3.99967 13.3333C3.99967 14.0697 3.40272 14.6667 2.66634 14.6667C1.92996 14.6667 1.33301 14.0697 1.33301 13.3333C1.33301 12.5969 1.92996 12 2.66634 12C3.40272 12 3.99967 12.5969 3.99967 13.3333Z" fill="black" fill-opacity="0.64"/><path _ngcontent-uas-c30="" d="M9.33268 13.3333C9.33268 14.0697 8.73575 14.6667 7.99935 14.6667C7.26295 14.6667 6.66602 14.0697 6.66602 13.3333C6.66602 12.5969 7.26295 12 7.99935 12C8.73575 12 9.33268 12.5969 9.33268 13.3333Z" fill="black" fill-opacity="0.64"/><path _ngcontent-uas-c30="" d="M14.6667 13.3333C14.6667 14.0697 14.0697 14.6667 13.3333 14.6667C12.5969 14.6667 12 14.0697 12 13.3333C12 12.5969 12.5969 12 13.3333 12C14.0697 12 14.6667 12.5969 14.6667 13.3333Z" fill="black" fill-opacity="0.64"/></svg>