<svg width="48" height="49" viewBox="0 0 48 49" fill="none" xmlns="http://www.w3.org/2000/svg">
<g clip-path="url(#clip0_120_34764)">
<path d="M34.7432 16.6801C34.5223 16.0817 34.17 15.54 33.7123 15.0955C33.2677 14.6377 32.7264 14.2854 32.1277 14.0646C31.6421 13.876 30.9126 13.6515 29.569 13.5903C28.1155 13.524 27.6797 13.5098 24 13.5098C20.3199 13.5098 19.8842 13.5237 18.431 13.59C17.0874 13.6515 16.3575 13.876 15.8723 14.0646C15.2736 14.2854 14.7319 14.6377 14.2877 15.0955C13.83 15.54 13.4777 16.0813 13.2565 16.6801C13.0679 17.1656 12.8434 17.8955 12.7822 19.2391C12.7159 20.6923 12.7017 21.1281 12.7017 24.8081C12.7017 28.4878 12.7159 28.9236 12.7822 30.3771C12.8434 31.7207 13.0679 32.4502 13.2565 32.9358C13.4777 33.5345 13.8296 34.0758 14.2874 34.5204C14.7319 34.9782 15.2732 35.3304 15.8719 35.5513C16.3575 35.7402 17.0874 35.9647 18.431 36.0259C19.8842 36.0922 20.3196 36.1061 23.9996 36.1061C27.6801 36.1061 28.1158 36.0922 29.5686 36.0259C30.9122 35.9647 31.6421 35.7402 32.1277 35.5513C33.3296 35.0876 34.2795 34.1377 34.7432 32.9358C34.9318 32.4502 35.1563 31.7207 35.2178 30.3771C35.2841 28.9236 35.298 28.4878 35.298 24.8081C35.298 21.1281 35.2841 20.6923 35.2178 19.2391C35.1566 17.8955 34.9321 17.1656 34.7432 16.6801ZM24 31.8844C20.0914 31.8844 16.923 28.7163 16.923 24.8077C16.923 20.8992 20.0914 17.7311 24 17.7311C27.9082 17.7311 31.0767 20.8992 31.0767 24.8077C31.0767 28.7163 27.9082 31.8844 24 31.8844ZM31.3564 19.1051C30.4431 19.1051 29.7026 18.3646 29.7026 17.4513C29.7026 16.538 30.4431 15.7975 31.3564 15.7975C32.2698 15.7975 33.0103 16.538 33.0103 17.4513C33.0099 18.3646 32.2698 19.1051 31.3564 19.1051Z" fill="#131313"/>
<path d="M28.5938 24.8066C28.5938 27.3438 26.5371 29.4004 24 29.4004C21.4629 29.4004 19.4062 27.3438 19.4062 24.8066C19.4062 22.2695 21.4629 20.2129 24 20.2129C26.5371 20.2129 28.5938 22.2695 28.5938 24.8066Z" fill="#131313"/>
<path d="M44.5382 0.806641H3.46179C1.5498 0.806641 0 2.35645 0 4.26843V45.3448C0 47.2568 1.5498 48.8066 3.46179 48.8066H44.5382C46.4502 48.8066 48 47.2568 48 45.3448V4.26843C48 2.35645 46.4502 0.806641 44.5382 0.806641V0.806641ZM37.6981 30.4884C37.6315 31.9554 37.3982 32.957 37.0576 33.8337C36.3417 35.6849 34.8783 37.1483 33.0271 37.8643C32.1508 38.2048 31.1488 38.4377 29.6821 38.5048C28.2125 38.5718 27.743 38.5879 24.0004 38.5879C20.2573 38.5879 19.7882 38.5718 18.3182 38.5048C16.8516 38.4377 15.8496 38.2048 14.9733 37.8643C14.0533 37.5182 13.2206 36.9758 12.5321 36.2745C11.8312 35.5864 11.2888 34.7533 10.9427 33.8337C10.6022 32.9574 10.3689 31.9554 10.3022 30.4888C10.2345 29.0188 10.2188 28.5493 10.2188 24.8066C10.2188 21.064 10.2345 20.5945 10.3019 19.1249C10.3685 17.6578 10.6014 16.6562 10.942 15.7795C11.2881 14.86 11.8308 14.0269 12.5321 13.3387C13.2202 12.6375 14.0533 12.0951 14.9729 11.749C15.8496 11.4084 16.8512 11.1755 18.3182 11.1085C19.7878 11.0415 20.2573 11.0254 24 11.0254C27.7427 11.0254 28.2122 11.0415 29.6818 11.1089C31.1488 11.1755 32.1504 11.4084 33.0271 11.7487C33.9467 12.0947 34.7798 12.6375 35.4683 13.3387C36.1692 14.0272 36.7119 14.86 37.0576 15.7795C37.3986 16.6562 37.6315 17.6578 37.6985 19.1249C37.7655 20.5945 37.7812 21.064 37.7812 24.8066C37.7812 28.5493 37.7655 29.0188 37.6981 30.4884Z" fill="#131313"/>
</g>
<defs>
<clipPath id="clip0_120_34764">
<rect width="48" height="48" fill="white" transform="translate(0 0.806641)"/>
</clipPath>
</defs>
</svg>
